<svg xmlns="http://www.w3.org/2000/svg" width="596" height="597" viewBox="0 0 596 597" fill="none">
  <g opacity="0.15">
    <path fill-rule="evenodd" clip-rule="evenodd" d="M298 328.35C314.458 328.35 327.8 314.986 327.8 298.5C327.8 282.014 314.458 268.65 298 268.65C281.542 268.65 268.2 282.014 268.2 298.5C268.2 314.986 281.542 328.35 298 328.35ZM298 307.455C302.937 307.455 306.94 303.446 306.94 298.5C306.94 293.554 302.937 289.545 298 289.545C293.063 289.545 289.06 293.554 289.06 298.5C289.06 303.446 293.063 307.455 298 307.455Z" fill="url(#paint0_linear_1856_14904)"/>
    <path fill-rule="evenodd" clip-rule="evenodd" d="M298 373.125C339.145 373.125 372.5 339.714 372.5 298.5C372.5 257.286 339.145 223.875 298 223.875C256.855 223.875 223.5 257.286 223.5 298.5C223.5 339.714 256.855 373.125 298 373.125ZM298 352.23C327.625 352.23 351.64 328.174 351.64 298.5C351.64 268.826 327.625 244.77 298 244.77C268.375 244.77 244.36 268.826 244.36 298.5C244.36 328.174 268.375 352.23 298 352.23Z" fill="url(#paint1_linear_1856_14904)"/>
    <path fill-rule="evenodd" clip-rule="evenodd" d="M417.2 298.5C417.2 364.443 363.832 417.9 298 417.9C232.168 417.9 178.8 364.443 178.8 298.5C178.8 232.557 232.168 179.1 298 179.1C363.832 179.1 417.2 232.557 417.2 298.5ZM396.34 298.5C396.34 352.903 352.312 397.005 298 397.005C243.688 397.005 199.66 352.903 199.66 298.5C199.66 244.097 243.688 199.995 298 199.995C352.312 199.995 396.34 244.097 396.34 298.5Z" fill="url(#paint2_linear_1856_14904)"/>
    <path fill-rule="evenodd" clip-rule="evenodd" d="M298 462.675C388.519 462.675 461.9 389.171 461.9 298.5C461.9 207.829 388.519 134.325 298 134.325C207.481 134.325 134.1 207.829 134.1 298.5C134.1 389.171 207.481 462.675 298 462.675ZM298 441.78C376.999 441.78 441.04 377.631 441.04 298.5C441.04 219.369 376.999 155.22 298 155.22C219.001 155.22 154.96 219.369 154.96 298.5C154.96 377.631 219.001 441.78 298 441.78Z" fill="url(#paint3_linear_1856_14904)"/>
    <path fill-rule="evenodd" clip-rule="evenodd" d="M506.6 298.5C506.6 413.9 413.207 507.45 298 507.45C182.793 507.45 89.4 413.9 89.4 298.5C89.4 183.1 182.793 89.55 298 89.55C413.207 89.55 506.6 183.1 506.6 298.5ZM485.74 298.5C485.74 402.36 401.686 486.555 298 486.555C194.314 486.555 110.26 402.36 110.26 298.5C110.26 194.64 194.314 110.445 298 110.445C401.686 110.445 485.74 194.64 485.74 298.5Z" fill="url(#paint4_linear_1856_14904)"/>
    <path fill-rule="evenodd" clip-rule="evenodd" d="M298 552.225C437.894 552.225 551.3 438.628 551.3 298.5C551.3 158.372 437.894 44.775 298 44.775C158.106 44.775 44.7 158.372 44.7 298.5C44.7 438.628 158.106 552.225 298 552.225ZM298 531.33C426.373 531.33 530.44 427.088 530.44 298.5C530.44 169.912 426.373 65.67 298 65.67C169.627 65.67 65.56 169.912 65.56 298.5C65.56 427.088 169.627 531.33 298 531.33Z" fill="url(#paint5_linear_1856_14904)"/>
    <path fill-rule="evenodd" clip-rule="evenodd" d="M596 298.5C596 463.357 462.581 597 298 597C133.419 597 0 463.357 0 298.5C0 133.643 133.419 0 298 0C462.581 0 596 133.643 596 298.5ZM575.14 298.5C575.14 451.817 451.06 576.105 298 576.105C144.94 576.105 20.86 451.817 20.86 298.5C20.86 145.183 144.94 20.895 298 20.895C451.06 20.895 575.14 145.183 575.14 298.5Z" fill="url(#paint6_linear_1856_14904)"/>
  </g>
  <defs>
    <linearGradient id="paint0_linear_1856_14904" x1="298" y1="126.033" x2="298" y2="597" gradientUnits="userSpaceOnUse">
      <stop stop-color="white"/>
      <stop offset="1" stop-color="white" stop-opacity="0"/>
    </linearGradient>
    <linearGradient id="paint1_linear_1856_14904" x1="298" y1="126.033" x2="298" y2="597" gradientUnits="userSpaceOnUse">
      <stop stop-color="white"/>
      <stop offset="1" stop-color="white" stop-opacity="0"/>
    </linearGradient>
    <linearGradient id="paint2_linear_1856_14904" x1="298" y1="126.033" x2="298" y2="597" gradientUnits="userSpaceOnUse">
      <stop stop-color="white"/>
      <stop offset="1" stop-color="white" stop-opacity="0"/>
    </linearGradient>
    <linearGradient id="paint3_linear_1856_14904" x1="298" y1="126.033" x2="298" y2="597" gradientUnits="userSpaceOnUse">
      <stop stop-color="white"/>
      <stop offset="1" stop-color="white" stop-opacity="0"/>
    </linearGradient>
    <linearGradient id="paint4_linear_1856_14904" x1="298" y1="126.033" x2="298" y2="597" gradientUnits="userSpaceOnUse">
      <stop stop-color="white"/>
      <stop offset="1" stop-color="white" stop-opacity="0"/>
    </linearGradient>
    <linearGradient id="paint5_linear_1856_14904" x1="298" y1="126.033" x2="298" y2="597" gradientUnits="userSpaceOnUse">
      <stop stop-color="white"/>
      <stop offset="1" stop-color="white" stop-opacity="0"/>
    </linearGradient>
    <linearGradient id="paint6_linear_1856_14904" x1="298" y1="126.033" x2="298" y2="597" gradientUnits="userSpaceOnUse">
      <stop stop-color="white"/>
      <stop offset="1" stop-color="white" stop-opacity="0"/>
    </linearGradient>
  </defs>
</svg>
