<svg width="419" height="713" viewBox="0 0 419 713" fill="none" xmlns="http://www.w3.org/2000/svg">
<g filter="url(#filter0_d_4005_237)">
<path d="M217.516 435.363C220.317 435.462 223.364 435.452 226.175 435.452C233.567 435.452 239.238 435.174 248.37 433.955C255.28 432.914 259.919 427.047 259.212 420.128C258.504 413.22 252.203 408.175 244.006 409.047C235.071 409.919 227.62 410.444 218.705 410.107H218.44C192.264 409.136 166.039 402.862 142.577 391.959C119.311 381.185 97.8235 365.475 80.4551 346.533C63.2439 327.81 49.5712 305.38 40.8821 281.661C32.2814 258.269 28.271 232.687 29.2834 207.65C30.2467 182.91 36.1247 158.141 46.3177 135.998C56.3732 114.053 71.0091 93.8033 88.6331 77.4291C106.051 61.2332 126.889 48.3876 148.897 40.26C170.59 32.2215 194.299 28.4947 217.486 29.5057C240.389 30.4671 263.301 36.0673 283.746 45.7015C304.004 55.2069 322.68 69.014 337.768 85.6261C352.679 102.03 364.494 121.616 371.925 142.292C379.277 162.641 382.639 184.873 381.656 206.609C380.703 228.058 375.493 249.477 366.568 268.587C357.781 287.499 345.032 304.914 329.708 318.969C314.6 332.845 296.583 343.818 277.593 350.696C258.927 357.486 238.541 360.559 218.636 359.557H218.587C198.968 358.606 179.388 353.68 161.931 345.324C144.68 337.088 128.806 325.184 116.018 310.901C103.397 296.826 93.4593 280.085 87.257 262.452C81.0743 244.908 78.4204 226.532 79.4132 207.818C80.3568 189.422 84.78 171.829 92.5452 155.524C100.084 139.635 110.946 125.045 123.94 113.3C136.748 101.743 151.934 92.6635 167.917 87.0336C183.771 81.4235 200.373 79.0942 217.28 80.0656C233.872 81.0171 249.697 85.1404 264.343 92.3165C278.585 99.2944 291.658 109.285 302.166 121.229C312.477 132.965 320.567 146.871 325.53 161.451C330.465 175.893 332.48 191.018 331.516 206.381C330.779 218.156 328.302 229.594 324.144 240.319C318.198 255.534 308.585 262.274 303.159 264.414V189.62C303.355 185.784 303.405 169.698 291.511 156.664C282.036 146.266 268.029 140.983 249.903 140.983C231.778 140.983 218.607 145.969 209.151 155.782C199.695 145.979 185.993 140.983 168.398 140.983C150.804 140.983 136.266 146.266 126.781 156.664C114.887 169.708 114.946 185.784 115.143 189.62V277.191C115.143 282.117 119.242 286.26 124.107 286.26H131.194C136.07 286.26 140.227 282.107 140.227 277.191V189.224L140.178 188.163C140.168 188.084 139.834 179.699 145.25 173.771C149.791 168.786 157.576 166.268 168.408 166.268C179.24 166.268 186.848 168.736 191.399 173.603C197.051 179.629 196.628 188.233 196.618 188.322V188.163C196.638 188.748 196.648 189.254 196.668 189.62V277.191C196.668 282.117 200.796 286.26 205.652 286.26H212.748C217.634 286.26 221.742 282.107 221.742 277.191V189.224L221.703 188.203V187.351C221.762 185.101 222.342 178.618 226.765 173.771C231.296 168.786 239.091 166.268 249.923 166.268C260.755 166.268 268.373 168.736 272.924 173.603C278.261 179.292 278.173 187.311 278.133 188.233L278.104 188.53V269.36C278.104 279.946 284.719 288.064 294.971 290.026C311.75 293.258 335.979 279.014 347.499 249.557C352.62 236.354 355.657 222.349 356.552 207.967C357.722 189.254 355.254 170.828 349.249 153.234C343.223 135.532 333.433 118.662 320.93 104.458C308.27 90.0467 292.494 77.9841 275.312 69.579C257.678 60.9359 238.639 55.9701 218.715 54.8303C198.506 53.6706 178.621 56.4657 159.64 63.1859C140.581 69.8961 122.456 80.7198 107.23 94.4872C91.7982 108.423 78.8922 125.749 69.9475 144.591C60.7472 163.929 55.5082 184.764 54.3876 206.5C53.2278 228.554 56.3338 250.231 63.6469 270.917C70.9304 291.642 82.6175 311.347 97.4205 327.85C112.4 344.581 130.988 358.517 151.187 368.171C171.878 378.083 194.151 383.683 217.398 384.813H217.408C240.939 385.972 264.048 382.503 286.085 374.485C308.152 366.496 329.079 353.759 346.585 337.662C364.317 321.397 379.081 301.227 389.254 279.332C399.565 257.238 405.6 232.479 406.691 207.739C407.822 182.712 403.949 157.09 395.476 133.649C386.934 109.89 373.36 87.3706 356.237 68.5382C338.947 49.5076 317.529 33.6785 294.332 22.7855C270.919 11.7438 244.713 5.34082 218.538 4.25052C192.077 3.10076 165.017 7.35291 140.267 16.5312C115.202 25.7888 91.4738 40.4185 71.648 58.8445C51.6157 77.439 34.9845 100.454 23.5628 125.382C12.0034 150.499 5.31948 178.618 4.23825 206.639C3.09804 234.967 7.64904 263.939 17.3801 290.423C27.18 317.224 42.6317 342.549 62.0545 363.701C81.6543 385.06 105.874 402.773 132.099 414.915C158.53 427.205 188.067 434.282 217.516 435.363Z" fill="url(#paint0_linear_4005_237)"/>
</g>
<path d="M47.2343 477.447C40.6662 477.447 38.4768 480.95 38.4768 484.015C38.4768 484.494 38.9147 484.453 38.9147 484.453H42.4177C42.4177 484.453 42.8556 484.453 42.8556 484.015C42.8556 482.263 44.1692 481.388 47.2343 481.388C50.2994 481.388 51.613 482.263 51.613 485.329V486.204C51.613 486.793 51.1751 486.642 51.1751 486.642C51.1751 486.642 49.4236 486.204 47.2343 486.204C41.5419 486.204 37.6011 488.394 37.6011 493.21C37.6011 497.589 40.2283 500.23 45.0449 500.23C49.4236 500.23 51.613 497.603 51.613 497.603L52.0509 499.354C52.1604 499.792 52.4888 499.792 52.4888 499.792H55.5539C55.5539 499.792 55.9917 499.792 55.9917 499.354V487.08C55.9917 480.498 53.8024 477.433 47.2343 477.433V477.447ZM51.613 491.91C51.613 494.538 49.4236 496.289 45.9207 496.289C43.2934 496.289 41.9798 495.413 41.9798 493.224C41.9798 491.035 43.7313 489.721 47.6722 489.721C49.8615 489.721 51.1751 490.159 51.1751 490.159C51.1751 490.159 51.613 490.255 51.613 490.597V491.91Z" fill="white"/>
<path d="M70.1251 487.095C65.7463 486.219 63.9948 485.781 63.9948 483.592C63.9948 481.84 65.7463 481.402 67.9357 481.402C71.0008 481.402 71.8765 482.716 71.8765 484.03C71.8765 484.467 72.3144 484.467 72.3144 484.467H75.8174C76.2963 484.467 76.2553 484.03 76.2553 484.03C76.2553 479.651 72.7523 477.461 67.9357 477.461C61.8055 477.461 59.6161 480.527 59.6161 483.592C59.6161 487.533 62.2433 489.284 66.6221 490.16C71.0008 491.035 72.3144 491.473 72.3144 493.663C72.3144 495.414 71.0008 496.29 67.9357 496.29C64.8706 496.29 63.557 494.976 63.557 492.787C63.557 492.787 63.557 492.349 63.1191 492.349H59.6161C59.1919 492.349 59.1782 492.787 59.1782 492.787C59.1782 497.604 62.2433 500.231 67.9357 500.231C74.0659 500.231 76.6931 497.166 76.6931 493.663C76.6931 489.722 74.5038 487.97 70.1251 487.095Z" fill="white"/>
<path d="M104.251 477.451C97.2448 477.451 94.1797 482.705 94.1797 488.849C94.1797 495.431 97.6827 500.247 104.689 500.247C109.943 500.247 113.008 497.182 113.446 493.679C113.446 493.679 113.515 493.241 113.008 493.241H109.505C109.177 493.241 109.067 493.679 109.067 493.679C108.192 495.869 106.44 496.307 104.689 496.307C99.4342 496.307 98.9963 491.928 98.9963 491.052V490.614H113.884C113.884 490.614 114.322 490.642 114.322 490.176V488.863C114.322 482.719 111.257 477.464 104.251 477.464V477.451ZM109.067 487.098H98.9963C98.9963 485.469 99.4342 481.405 104.251 481.405C109.067 481.405 109.505 485.401 109.505 487.098H109.067Z" fill="white"/>
<path d="M196.289 477.451C189.283 477.451 186.218 482.705 186.218 488.849C186.218 495.431 189.721 500.247 196.727 500.247C201.982 500.247 205.047 497.182 205.485 493.679C205.485 493.679 205.553 493.241 205.047 493.241H201.544C201.215 493.241 201.106 493.679 201.106 493.679C200.23 495.869 198.479 496.307 196.727 496.307C191.473 496.307 191.035 491.928 191.035 491.052V490.614H205.923C205.923 490.614 206.36 490.642 206.36 490.176V488.863C206.36 482.719 203.282 477.464 196.289 477.464V477.451ZM201.12 487.098H191.049C191.049 485.469 191.486 481.405 196.303 481.405C201.12 481.405 201.557 485.401 201.557 487.098H201.12Z" fill="white"/>
<path d="M130.21 477.887H128.459C125.394 477.887 123.642 478.763 122.329 480.077L121.891 478.325C121.781 477.901 121.453 477.887 121.453 477.887H118.388C117.923 477.887 117.95 478.325 117.95 478.325V499.37C117.95 499.37 117.95 499.808 118.388 499.808H121.891C122.329 499.808 122.329 499.37 122.329 499.37V488.41C122.329 483.155 124.518 481.842 128.021 481.842H130.21C130.21 481.842 130.648 481.869 130.648 481.404V478.339C130.648 477.901 130.21 477.901 130.21 477.901V477.887Z" fill="white"/>
<path d="M147.424 472.62C151.803 472.62 154.43 474.809 155.306 477.874C155.306 477.874 155.429 478.312 155.744 478.312H159.247C159.794 478.312 159.685 477.874 159.685 477.874C158.809 472.62 154.43 468.665 147.424 468.665C138.229 468.665 132.975 475.233 132.975 484.442C132.975 493.651 138.229 500.219 147.424 500.219C154.868 500.219 158.809 495.841 159.685 490.572C159.685 490.572 159.767 490.135 159.247 490.135H155.744C155.429 490.135 155.306 490.572 155.306 490.572C154.43 493.637 152.241 496.265 147.424 496.265C140.856 496.265 137.353 491.434 137.353 484.428C137.353 477.423 140.856 472.592 147.424 472.592V472.62Z" fill="white"/>
<path d="M91.8568 477.886H86.6023V473.507C86.6023 473.507 86.6023 473.069 86.1644 473.069H82.6614C82.2373 473.069 82.2236 473.507 82.2236 473.507V477.886H78.7206C78.2827 477.886 78.2827 478.324 78.2827 478.324V481.389C78.2827 481.389 78.2827 481.827 78.7206 481.827H82.2236V494.101C82.2236 498.042 85.2887 499.793 88.3538 499.793H91.8568C92.2947 499.793 92.2947 499.355 92.2947 499.355V496.29C92.2947 495.839 91.8568 495.852 91.8568 495.852H88.3538C87.478 495.852 86.6023 495.415 86.6023 494.101V481.827H91.8568C92.281 481.827 92.2947 481.389 92.2947 481.389V478.324C92.2947 478.324 92.2947 477.886 91.8568 477.886Z" fill="white"/>
<path d="M174.286 477.448C170.345 477.448 168.156 480.075 168.156 480.075V469.553C168.156 469.553 168.156 469.115 167.718 469.115H164.215C163.791 469.115 163.777 469.553 163.777 469.553V499.369C163.777 499.369 163.777 499.807 164.215 499.807H167.718C168.17 499.807 168.156 499.369 168.156 499.369V488.409C168.156 483.154 170.345 481.403 173.848 481.403C177.351 481.403 178.227 484.03 178.227 486.657V499.369C178.227 499.369 178.227 499.807 178.665 499.807H182.168C182.62 499.807 182.606 499.369 182.606 499.369V486.657C182.606 481.84 180.854 477.448 174.286 477.448Z" fill="white"/>
<path d="M221.125 469.992H217.622C214.557 469.992 211.492 471.744 211.492 475.685V477.874H207.989C207.551 477.874 207.551 478.312 207.551 478.312V481.377C207.551 481.377 207.551 481.815 207.989 481.815H211.478V499.357C211.478 499.357 211.478 499.795 211.916 499.795H215.433C215.83 499.795 215.857 499.425 215.857 499.371V481.828H220.728C221.153 481.828 221.166 481.391 221.166 481.391V478.325C221.166 478.325 221.153 477.888 220.728 477.888H215.857V475.698C215.857 474.385 216.733 473.947 217.609 473.947H221.112C221.536 473.947 221.55 473.509 221.55 473.509V470.43C221.55 469.992 221.112 469.992 221.112 469.992H221.125Z" fill="white"/>
<path d="M32.6196 469.115H29.4588C28.9661 469.115 28.6925 469.553 28.6925 469.553L28.2409 470.223L18.5667 484.796C18.5667 484.796 18.5256 484.851 18.4982 484.851C18.4709 484.851 18.4435 484.823 18.4298 484.796L8.75557 470.237L8.30401 469.566C8.30401 469.566 8.03034 469.128 7.53773 469.128H4.37684C3.93896 469.115 3.93896 469.553 3.93896 469.553V499.369C3.93896 499.369 3.93896 499.807 4.37684 499.807H7.87982C8.26296 499.807 8.30401 499.479 8.3177 499.396V477.38L18.0604 492.062C18.0604 492.062 18.1698 492.226 18.4982 492.226C18.8266 492.226 18.9361 492.062 18.9361 492.062L28.6788 477.38V499.383C28.6788 499.479 28.7335 499.793 29.1167 499.793H32.6196C33.0712 499.793 33.0575 499.355 33.0575 499.355V469.553C33.0575 469.553 33.0438 469.115 32.6196 469.115Z" fill="white"/>
<path d="M263.819 469.428C263.888 469.168 263.696 468.908 263.422 468.908H259.317C259.126 468.908 258.961 469.031 258.92 469.222L253.05 493.567L247.07 469.647C247.029 469.469 246.864 469.332 246.673 469.332H241.61C241.418 469.332 241.254 469.455 241.213 469.633L235.096 493.485L229.54 469.222C229.499 469.031 229.335 468.908 229.143 468.908H224.751C224.477 468.908 224.285 469.154 224.354 469.414L232.017 499.451C232.058 499.629 232.222 499.766 232.414 499.766H237.381C237.573 499.766 237.723 499.643 237.778 499.465L244.004 475.818L249.998 499.451C250.039 499.629 250.203 499.766 250.395 499.766H255.636L263.806 469.428H263.819Z" fill="white"/>
<path d="M272.943 477.203C266.47 477.203 262.296 481.637 262.296 488.479C262.296 495.321 266.47 499.755 272.943 499.755C279.415 499.755 283.589 495.321 283.589 488.479C283.589 481.637 279.402 477.203 272.943 477.203ZM272.943 496.183C269.303 496.183 266.949 493.241 266.949 488.479C266.949 483.717 269.248 480.775 272.943 480.775C276.638 480.775 278.936 483.799 278.936 488.479C278.936 493.159 276.583 496.183 272.943 496.183Z" fill="white"/>
<path d="M329.668 469.841H326.138C325.905 469.841 325.727 470.019 325.727 470.251V479.215C324.304 477.682 322.046 477.203 320.007 477.203C315.163 477.203 309.511 480.241 309.511 488.794C309.511 495.458 313.357 499.768 319.309 499.768C321.485 499.768 323.784 499.07 325.029 498.03L325.727 497.374V498.824C325.727 499.057 325.905 499.235 326.138 499.235H329.668C329.901 499.235 330.079 499.057 330.079 498.824V470.251C330.079 470.019 329.901 469.841 329.668 469.841ZM325.727 488.684C325.727 493.446 323.565 496.183 319.815 496.183C315.655 496.183 314.164 492.174 314.164 488.41C314.164 483.717 316.394 480.788 320.007 480.788C322.648 480.788 325.727 482.567 325.727 487.562V488.684Z" fill="white"/>
<path d="M298.378 477.757H296.627C293.561 477.757 291.81 478.633 290.496 479.946L290.058 478.195C289.949 477.771 289.62 477.757 289.62 477.757H286.555C286.09 477.757 286.117 478.195 286.117 478.195V499.241C286.117 499.241 286.117 499.679 286.555 499.679H290.058C290.496 499.679 290.496 499.241 290.496 499.241V488.28C290.496 483.025 292.685 481.712 296.189 481.712H298.378C298.378 481.712 298.816 481.739 298.816 481.274V478.208C298.816 477.771 298.378 477.771 298.378 477.771V477.757Z" fill="white"/>
<path d="M307.787 496.181H307.664C306.816 496.277 306.268 496.222 306.022 496.017C305.912 495.921 305.762 495.729 305.734 495.141C305.693 494.498 305.693 493.854 305.693 493.239V470.646C305.693 470.413 305.516 470.235 305.283 470.235H301.752C301.52 470.235 301.342 470.413 301.342 470.646V493.362C301.342 494.498 301.342 495.387 301.383 496.085C301.533 499.397 303.723 499.78 305.365 499.78C306.309 499.78 307.117 499.725 307.801 499.616H307.897C308.102 499.574 308.239 499.397 308.239 499.191V496.591C308.239 496.345 308.033 496.153 307.787 496.181Z" fill="white"/>
<g filter="url(#filter1_d_4005_237)">
<path d="M373.534 476.984C379.486 476.985 383.331 481.295 383.331 487.959C383.331 496.511 377.68 499.549 372.836 499.549C370.797 499.549 368.539 499.07 367.116 497.537V506.5C367.116 506.733 366.925 506.91 366.706 506.91H363.176C362.943 506.91 362.765 506.733 362.765 506.5V477.929C362.765 477.696 362.943 477.519 363.176 477.519H366.706C366.938 477.519 367.116 477.696 367.116 477.929V479.379L367.814 478.723C369.06 477.683 371.359 476.984 373.534 476.984ZM397.087 476.984C403.039 476.984 406.885 481.295 406.885 487.959C406.885 496.511 401.233 499.549 396.39 499.549C394.351 499.549 392.093 499.07 390.67 497.537V506.5C390.67 506.733 390.491 506.91 390.259 506.91H386.729C386.496 506.91 386.318 506.733 386.318 506.5V477.929C386.318 477.696 386.496 477.519 386.729 477.519H390.259C390.491 477.519 390.67 477.696 390.67 477.929V479.379L391.367 478.723C392.612 477.683 394.911 476.984 397.087 476.984ZM351.029 476.972C357.597 476.972 359.787 480.037 359.787 486.618V498.893C359.787 499.322 359.365 499.33 359.35 499.33H356.284C356.284 499.33 355.955 499.33 355.846 498.893L355.408 497.142C355.381 497.174 353.191 499.769 348.84 499.769C344.024 499.768 341.397 497.127 341.396 492.749C341.396 487.932 345.337 485.743 351.029 485.743C353.219 485.743 354.971 486.181 354.971 486.181C354.982 486.185 355.408 486.323 355.408 485.743V484.867C355.408 481.802 354.094 480.926 351.029 480.926C347.964 480.926 346.65 481.802 346.65 483.554C346.65 483.991 346.213 483.991 346.213 483.991H342.71C342.707 483.991 342.273 484.031 342.272 483.554C342.272 480.489 344.461 476.985 351.029 476.985V476.972ZM396.581 480.569C392.832 480.569 390.67 483.306 390.67 488.068V489.19C390.67 494.18 393.743 495.96 396.382 495.963C399.991 495.959 402.219 493.032 402.219 488.342C402.219 484.579 400.741 480.57 396.581 480.569ZM373.027 480.569C369.278 480.569 367.116 483.307 367.116 488.068V489.19C367.116 494.18 370.189 495.959 372.828 495.963C376.437 495.96 378.665 493.033 378.665 488.342C378.665 484.579 377.187 480.569 373.027 480.569ZM351.468 489.273C347.527 489.273 345.775 490.587 345.775 492.776C345.775 494.966 347.089 495.841 349.716 495.841C353.219 495.841 355.408 494.09 355.408 491.463V490.148C355.408 489.811 354.982 489.714 354.971 489.711C354.971 489.711 353.657 489.273 351.468 489.273Z" fill="url(#paint1_linear_4005_237)"/>
</g>
<path d="M123.154 647.648C121.535 650.254 117.678 654.626 114.448 651.412C111.938 648.914 110.25 637.943 110.498 635.189C110.676 633.238 114.08 629.082 115.881 624.931C120.919 613.301 124.164 603.12 122.298 593.12C121.349 588.051 111.555 585.402 106.97 589.933C98.9414 597.868 97.2762 621.658 100.084 639.403C82.1726 665.427 68.502 657.43 70.1557 641.343C70.2176 640.751 72.7271 641.757 77.0413 641.374C98.6394 639.469 101.877 600.974 75.5968 604.839C53.1003 608.15 46.5167 667.608 79.6902 665.303C86.3435 664.843 95.6187 655.711 101.726 647.206C102.164 648.814 102.644 650.32 103.17 651.695C105.517 657.81 115.04 663.572 121.744 656.9C124.079 654.572 127.239 649.499 123.157 647.652L123.154 647.648ZM70.3996 631.363C71.6931 623.873 76.0964 611.213 80.306 610.633C86.0337 609.843 83.0982 620.791 81.2316 625.949C79.0086 632.095 75.3489 634 71.2594 633.323C70.4384 633.187 70.2563 632.188 70.3996 631.367V631.363ZM110.408 624.001C110.525 617.913 111.133 610.931 112.426 604.916C113.139 601.601 114.107 595.363 117.809 593.786C119.327 602.922 114.095 616.678 111.005 624.47C110.37 625.883 110.354 626.189 110.408 624.001Z" fill="white"/>
<path d="M342.344 599.111H342.368C340.517 598.542 336.946 598.728 335.815 598.294C334.405 597.756 334.816 594.332 329.65 593.604C310.437 590.893 301.131 610.52 299.931 626.832C299.694 630.015 299.931 633.071 300.21 636.022C300.767 642.652 300.918 648.91 296.085 654.506C292.418 658.755 288.75 656.195 287.856 652.311C284.091 636.018 291.105 605.191 295.74 586.161C311.928 582.997 329.204 578.396 345.272 584.29C348.177 585.355 350.733 590.038 350.733 590.038C356.17 581.409 347.793 567.169 338.139 566.193C322.206 564.586 310.949 570.016 297.867 573.919H297.843L304.764 547.728C303.989 544.65 288.797 540.13 285.726 540.908L276.702 579.364C272.28 581.305 264.728 582.273 257.951 582.273C254.043 582.273 251.719 576.464 251.905 585.39C252.142 596.795 267.919 591.718 274.747 590.061C273.298 610.64 268.558 631.344 272.125 651.95C275.734 672.848 293.959 675.686 303.799 657.395C309.88 667.228 317.962 671.298 329.63 669.92C357.46 666.647 364.508 605.9 342.352 599.119L342.344 599.111ZM327.648 661.644C317.002 661.644 315.259 639.964 319.224 623.726C321.312 615.175 324.425 606.942 331.474 604.812C330.637 608.17 332.399 609.738 334.289 611.419C343.723 617.115 341.907 661.644 327.648 661.644Z" fill="white"/>
<path d="M241.418 673.521C254.291 672.631 263.167 662.957 266.928 651.505C261.959 646.765 260.917 648.814 259.36 651.474C247.49 671.721 226.547 663.84 228.805 641.908C228.886 641.126 232.205 642.455 237.917 641.951C266.49 639.438 270.773 588.647 236.004 593.748C206.242 598.116 197.533 676.561 241.418 673.521ZM229.126 628.737C230.838 618.854 236.662 602.151 242.235 601.385C249.814 600.343 245.93 614.788 243.459 621.592C240.516 629.702 235.675 632.215 230.265 631.321C229.176 631.142 228.936 629.826 229.126 628.737Z" fill="white"/>
<path d="M225.993 680.81C207.404 662.221 194.237 642.664 182.425 632.014C189.59 630.658 218.248 620.202 212.439 586.316C206.63 552.43 162.481 551.268 153.574 584.38C151.637 558.626 119.687 567.921 114.653 570.244C114.92 571.061 115.153 571.774 115.346 572.355C120.253 571.774 130.763 575.085 132.467 592.125C134.597 613.425 138.664 656.605 139.826 664.544C140.987 672.483 139.632 693.59 164.417 689.136C160.738 681.987 156.381 650.885 157.535 634.694C168.185 634.694 182.754 660.683 201.595 685.651C225.993 717.988 273.24 722.829 274.983 688.555C262.784 700.754 244.106 698.922 225.993 680.81ZM158.205 623.474C158.98 610.888 162.818 582.892 172.635 575.647C184.416 566.952 193.78 580.313 189.396 600.649C185.337 619.474 167.887 627.157 158.205 623.478V623.474Z" fill="white"/>
<defs>
<filter id="filter0_d_4005_237" x="0.00014019" y="0.00014019" width="410.949" height="439.518" filterUnits="userSpaceOnUse" color-interpolation-filters="sRGB">
<feFlood flood-opacity="0" result="BackgroundImageFix"/>
<feColorMatrix in="SourceAlpha" type="matrix" values="0 0 0 0 0 0 0 0 0 0 0 0 0 0 0 0 0 0 127 0" result="hardAlpha"/>
<feOffset/>
<feGaussianBlur stdDeviation="2.03313"/>
<feComposite in2="hardAlpha" operator="out"/>
<feColorMatrix type="matrix" values="0 0 0 0 0.976471 0 0 0 0 0.517647 0 0 0 0 0.290196 0 0 0 0.6 0"/>
<feBlend mode="normal" in2="BackgroundImageFix" result="effect1_dropShadow_4005_237"/>
<feBlend mode="normal" in="SourceGraphic" in2="effect1_dropShadow_4005_237" result="shape"/>
</filter>
<filter id="filter1_d_4005_237" x="329.553" y="465.128" width="89.1753" height="53.6255" filterUnits="userSpaceOnUse" color-interpolation-filters="sRGB">
<feFlood flood-opacity="0" result="BackgroundImageFix"/>
<feColorMatrix in="SourceAlpha" type="matrix" values="0 0 0 0 0 0 0 0 0 0 0 0 0 0 0 0 0 0 127 0" result="hardAlpha"/>
<feOffset/>
<feGaussianBlur stdDeviation="5.92175"/>
<feComposite in2="hardAlpha" operator="out"/>
<feColorMatrix type="matrix" values="0 0 0 0 0.976471 0 0 0 0 0.517647 0 0 0 0 0.290196 0 0 0 0.6 0"/>
<feBlend mode="normal" in2="BackgroundImageFix" result="effect1_dropShadow_4005_237"/>
<feBlend mode="normal" in="SourceGraphic" in2="effect1_dropShadow_4005_237" result="shape"/>
</filter>
<linearGradient id="paint0_linear_4005_237" x1="332.202" y1="-289.516" x2="-7.46567" y2="435.763" gradientUnits="userSpaceOnUse">
<stop stop-color="#F3AD68"/>
<stop offset="1" stop-color="#FC6B37"/>
</linearGradient>
<linearGradient id="paint1_linear_4005_237" x1="394.743" y1="456.597" x2="382.945" y2="515.613" gradientUnits="userSpaceOnUse">
<stop stop-color="#F3AD68"/>
<stop offset="1" stop-color="#FC6B37"/>
</linearGradient>
</defs>
</svg>
