<svg width="411" height="440" viewBox="0 0 411 440" fill="none" xmlns="http://www.w3.org/2000/svg">
<g>
<path d="M217.516 435.363C220.317 435.462 223.364 435.452 226.175 435.452C233.567 435.452 239.238 435.174 248.37 433.955C255.28 432.914 259.919 427.047 259.212 420.128C258.504 413.22 252.203 408.175 244.006 409.047C235.071 409.919 227.62 410.444 218.705 410.107H218.44C192.264 409.136 166.039 402.862 142.577 391.959C119.311 381.185 97.8235 365.475 80.4551 346.533C63.2439 327.81 49.5712 305.38 40.8821 281.661C32.2814 258.269 28.271 232.687 29.2834 207.65C30.2467 182.91 36.1247 158.141 46.3177 135.998C56.3732 114.053 71.0091 93.8033 88.6331 77.4291C106.051 61.2332 126.889 48.3876 148.897 40.26C170.59 32.2215 194.299 28.4947 217.486 29.5057C240.389 30.4671 263.301 36.0673 283.746 45.7015C304.004 55.2069 322.68 69.014 337.768 85.6261C352.679 102.03 364.494 121.616 371.925 142.292C379.277 162.641 382.639 184.873 381.656 206.609C380.703 228.058 375.493 249.477 366.568 268.587C357.781 287.499 345.032 304.914 329.708 318.969C314.6 332.845 296.583 343.818 277.593 350.696C258.927 357.486 238.541 360.559 218.636 359.557H218.587C198.968 358.606 179.388 353.68 161.931 345.324C144.68 337.088 128.806 325.184 116.018 310.901C103.397 296.826 93.4593 280.085 87.257 262.452C81.0743 244.908 78.4204 226.532 79.4132 207.818C80.3568 189.422 84.78 171.829 92.5452 155.524C100.084 139.635 110.946 125.045 123.94 113.3C136.748 101.743 151.934 92.6635 167.917 87.0336C183.771 81.4235 200.373 79.0942 217.28 80.0656C233.872 81.0171 249.697 85.1404 264.343 92.3165C278.585 99.2944 291.658 109.285 302.166 121.229C312.477 132.965 320.567 146.871 325.53 161.451C330.465 175.893 332.48 191.018 331.516 206.381C330.779 218.156 328.302 229.594 324.144 240.319C318.198 255.534 308.585 262.274 303.159 264.414V189.62C303.355 185.784 303.405 169.698 291.511 156.664C282.036 146.266 268.029 140.983 249.903 140.983C231.778 140.983 218.607 145.969 209.151 155.782C199.695 145.979 185.993 140.983 168.398 140.983C150.804 140.983 136.266 146.266 126.781 156.664C114.887 169.708 114.946 185.784 115.143 189.62V277.191C115.143 282.117 119.242 286.26 124.107 286.26H131.194C136.07 286.26 140.227 282.107 140.227 277.191V189.224L140.178 188.163C140.168 188.084 139.834 179.699 145.25 173.771C149.791 168.786 157.576 166.268 168.408 166.268C179.24 166.268 186.848 168.736 191.399 173.603C197.051 179.629 196.628 188.233 196.618 188.322V188.163C196.638 188.748 196.648 189.254 196.668 189.62V277.191C196.668 282.117 200.796 286.26 205.652 286.26H212.748C217.634 286.26 221.742 282.107 221.742 277.191V189.224L221.703 188.203V187.351C221.762 185.101 222.342 178.618 226.765 173.771C231.296 168.786 239.091 166.268 249.923 166.268C260.755 166.268 268.373 168.736 272.924 173.603C278.261 179.292 278.173 187.311 278.133 188.233L278.104 188.53V269.36C278.104 279.946 284.719 288.064 294.971 290.026C311.75 293.258 335.979 279.014 347.499 249.557C352.62 236.354 355.657 222.349 356.552 207.967C357.722 189.254 355.254 170.828 349.249 153.234C343.223 135.532 333.433 118.662 320.93 104.458C308.27 90.0467 292.494 77.9841 275.312 69.579C257.678 60.9359 238.639 55.9701 218.715 54.8303C198.506 53.6706 178.621 56.4657 159.64 63.1859C140.581 69.8961 122.456 80.7198 107.23 94.4872C91.7982 108.423 78.8922 125.749 69.9475 144.591C60.7472 163.929 55.5082 184.764 54.3876 206.5C53.2278 228.554 56.3338 250.231 63.6469 270.917C70.9304 291.642 82.6175 311.347 97.4205 327.85C112.4 344.581 130.988 358.517 151.187 368.171C171.878 378.083 194.151 383.683 217.398 384.813H217.408C240.939 385.972 264.048 382.503 286.085 374.485C308.152 366.496 329.079 353.759 346.585 337.662C364.317 321.397 379.081 301.227 389.254 279.332C399.565 257.238 405.6 232.479 406.691 207.739C407.822 182.712 403.949 157.09 395.476 133.649C386.934 109.89 373.36 87.3706 356.237 68.5382C338.947 49.5076 317.529 33.6785 294.332 22.7855C270.919 11.7438 244.713 5.34082 218.538 4.25052C192.077 3.10076 165.017 7.35291 140.267 16.5312C115.202 25.7888 91.4738 40.4185 71.648 58.8445C51.6157 77.439 34.9845 100.454 23.5628 125.382C12.0034 150.499 5.31948 178.618 4.23825 206.639C3.09804 234.967 7.64904 263.939 17.3801 290.423C27.18 317.224 42.6317 342.549 62.0545 363.701C81.6543 385.06 105.874 402.773 132.099 414.915C158.53 427.205 188.067 434.282 217.516 435.363Z" fill="url(#paint0_linear_4005_238)"/>
</g>
<defs>

<linearGradient id="paint0_linear_4005_238" x1="332.202" y1="-289.516" x2="-7.46567" y2="435.763" gradientUnits="userSpaceOnUse">
<stop stop-color="#F3AD68"/>
<stop offset="1" stop-color="#FC6B37"/>
</linearGradient>
</defs>
</svg>
